<svg width="24" height="24" fill="none" xmlns="http://www.w3.org/2000/svg">
  <mask id="a" style="mask-type:alpha" maskUnits="userSpaceOnUse" x="0" y="0" width="24" height="24">
    <path fill="#C4C4C4" d="M0 0h24v24H0z" />
  </mask>
  <g mask="url(#a)">
    <path
      d="M13.95 2.01 9.8 2A7.72 7.72 0 0 0 2 9.8c0 4.1 3.19 7.2 7.46 7.37V21c0 .1.05.29.13.4a.74.74 0 0 0 1.03.23c.26-.17 6.47-4.14 8.09-5.5a8.45 8.45 0 0 0 3.04-6.32V9.8a7.72 7.72 0 0 0-7.8-7.8v.01Zm3.79 12.97c-1.14.96-4.86 3.4-6.77 4.64v-3.18a.75.75 0 0 0-.76-.75h-.4c-3.65 0-6.3-2.48-6.3-5.89 0-3.53 2.76-6.3 6.3-6.3l4.14.01c3.53 0 6.3 2.77 6.3 6.3 0 1.9-.94 3.84-2.51 5.17Z"
      fill="#536471" />
  </g>
</svg>