<svg width="20" height="20" viewBox="0 0 20 20" fill="none" xmlns="http://www.w3.org/2000/svg">
<path d="M17.75 20H2.25C1.01 20 0 18.99 0 17.75V2.25C0 1.01 1.01 0 2.25 0H17.75C18.99 0 20 1.01 20 2.25V17.75C20 18.99 18.99 20 17.75 20ZM2.25 1.5C1.836 1.5 1.5 1.837 1.5 2.25V17.75C1.5 18.163 1.836 18.5 2.25 18.5H17.75C18.164 18.5 18.5 18.163 18.5 17.75V2.25C18.5 1.837 18.164 1.5 17.75 1.5H2.25Z" fill="black"/>
<path d="M14.75 6.5H4.75C4.336 6.5 4 6.163 4 5.75C4 5.337 4.336 5 4.75 5H14.75C15.164 5 15.5 5.335 15.5 5.75C15.5 6.165 15.164 6.5 14.75 6.5ZM14.75 10.61H4.75C4.336 10.61 4 10.274 4 9.86C4 9.446 4.336 9.11 4.75 9.11H14.75C15.164 9.11 15.5 9.446 15.5 9.86C15.5 10.274 15.164 10.61 14.75 10.61ZM9.75 14.72H4.75C4.336 14.72 4 14.385 4 13.97C4 13.555 4.336 13.22 4.75 13.22H9.75C10.164 13.22 10.5 13.557 10.5 13.97C10.5 14.383 10.164 14.72 9.75 14.72Z" fill="black"/>
</svg>
