<svg width="39" height="38" viewBox="0 0 39 38" fill="none" xmlns="http://www.w3.org/2000/svg">
<circle cx="19.5" cy="19" r="19" fill="#E3E8EA"/>
<mask id="mask0_24_209" style="mask-type:alpha" maskUnits="userSpaceOnUse" x="1" y="1" width="37" height="36">
<circle cx="19.4999" cy="18.9999" r="17.1" fill="#E2E8EA" stroke="black" stroke-width="1.26667"/>
</mask>
<g mask="url(#mask0_24_209)">
<path d="M26.858 16.1903C26.858 20.2351 23.5791 23.514 19.5343 23.514C15.4896 23.514 12.2107 20.2351 12.2107 16.1903C12.2107 12.1456 15.4896 8.8667 19.5343 8.8667C23.5791 8.8667 26.858 12.1456 26.858 16.1903Z" fill="white"/>
<path d="M36.0125 42.4334C36.0125 38.0631 34.2764 33.8718 31.1862 30.7815C28.0959 27.6913 23.9046 25.9552 19.5343 25.9552C15.1641 25.9552 10.9728 27.6913 7.8825 30.7815C4.79224 33.8718 3.05615 38.0631 3.05615 42.4334L36.0125 42.4334Z" fill="white"/>
</g>
</svg>
